2.2Hz3min_grf.mot
version=1
nRows=25
nColumns 19
inDegrees=yes
endheader
time	1_ground_force_vx	1_ground_force_vy	1_ground_force_vz	1_ground_force_px	1_ground_force_py	1_ground_force_pz	1_ground_torque_x	1_ground_torque_y	1_ground_torque_z	2_ground_force_vx	2_ground_force_vy	2_ground_force_vz	2_ground_force_px	2_ground_force_py	2_ground_force_pz	2_ground_torque_x	2_ground_torque_y	2_ground_torque_z
            1.253500	          -14.227051	          889.786444	         -121.752192	           -0.236283	            0.006050	           -0.365224	           -0.040568	            2.537197	           -0.347172	            4.546742	          802.927441	          102.209745	           -0.248117	            0.005702	           -0.729659	            0.001282	            0.226388	            0.028818
            1.254000	          -14.410352	          886.902944	         -121.947528	           -0.236294	            0.006051	           -0.365230	           -0.039575	            2.435663	           -0.334899	            4.319078	          801.085569	          102.062482	           -0.247905	            0.005703	           -0.729864	            0.001587	            0.294343	            0.037501
            1.254500	          -14.729228	          883.295209	         -121.411920	           -0.236192	            0.006051	           -0.365249	           -0.038699	            2.320752	           -0.318995	            4.096668	          797.771073	          101.769186	           -0.248006	            0.005702	           -0.729527	            0.001935	            0.376818	            0.048070
            1.255000	          -15.003499	          880.230216	         -121.332658	           -0.236152	            0.006051	           -0.365373	           -0.039392	            2.311064	           -0.318562	            4.057067	          795.745797	          101.621202	           -0.247860	            0.005703	           -0.729568	            0.002032	            0.398604	            0.050904
            1.255500	          -15.368530	          877.704324	         -120.838165	           -0.235994	            0.006051	           -0.365306	           -0.041835	            2.389233	           -0.328938	            3.924390	          793.536316	          101.378729	           -0.247913	            0.005702	           -0.729467	            0.002266	            0.458250	            0.058544
            1.256000	          -15.504328	          874.457488	         -120.393171	           -0.236017	            0.006051	           -0.365220	           -0.041653	            2.349249	           -0.323439	            3.695232	          792.064063	          100.857370	           -0.247850	            0.005702	           -0.729534	            0.002232	            0.478448	            0.060923
            1.256500	          -15.915526	          871.211311	         -120.085065	           -0.235927	            0.006050	           -0.365141	           -0.041722	            2.283843	           -0.314798	            3.748604	          790.223830	          100.569211	           -0.247837	            0.005703	           -0.729648	            0.002232	            0.470495	            0.059878
            1.257000	          -15.959848	          867.244020	         -119.780977	           -0.236005	            0.006051	           -0.365431	           -0.039800	            2.162695	           -0.298705	            3.895697	          788.383645	          100.327933	           -0.247842	            0.005703	           -0.729596	            0.002080	            0.420936	            0.053567
            1.257500	          -16.324864	          865.258698	         -119.238298	           -0.235990	            0.006050	           -0.365112	           -0.037806	            2.003798	           -0.276136	            3.533402	          784.884562	          100.034040	           -0.247730	            0.005703	           -0.729515	            0.002180	            0.484181	            0.061709
            1.258000	          -16.369429	          860.751231	         -119.074085	           -0.235942	            0.006051	           -0.365222	           -0.037856	            1.990583	           -0.275372	            3.539261	          783.228117	           99.746557	           -0.247703	            0.005703	           -0.729582	            0.002563	            0.567105	            0.072223
            1.258500	          -16.276971	          857.145738	         -119.043904	           -0.235691	            0.006051	           -0.365354	           -0.037014	            1.949137	           -0.270704	            3.501113	          780.833555	           99.878827	           -0.247652	            0.005703	           -0.729503	            0.002490	            0.555335	            0.071035
            1.259000	          -16.413371	          854.080182	         -118.827427	           -0.235646	            0.006050	           -0.365170	           -0.039240	            2.041858	           -0.284082	            3.418526	          777.704271	           99.445337	           -0.247503	            0.005703	           -0.729422	            0.002615	            0.595011	            0.076084
            1.259500	          -16.685089	          851.371259	         -117.691945	           -0.235667	            0.006050	           -0.364978	           -0.040207	            2.051615	           -0.283611	            3.754307	          775.496816	           99.108823	           -0.247566	            0.005704	           -0.729537	            0.002759	            0.569912	            0.072835
            1.260000	          -17.050426	          847.404225	         -117.432897	           -0.235636	            0.006050	           -0.364989	           -0.037772	            1.877245	           -0.260148	            3.667130	          773.655953	           98.820724	           -0.247676	            0.005703	           -0.729483	            0.002716	            0.573072	            0.073200
            1.260500	          -17.186502	          843.797508	         -117.127035	           -0.235598	            0.006050	           -0.365107	           -0.036834	            1.808443	           -0.251029	            3.819458	          770.343312	           98.386477	           -0.247517	            0.005704	           -0.729498	            0.002689	            0.542429	            0.069278
            1.261000	          -17.414260	          840.190774	         -116.820930	           -0.235444	            0.006050	           -0.365069	           -0.034273	            1.653558	           -0.229912	            3.781207	          767.949587	           98.284099	           -0.247527	            0.005703	           -0.729393	            0.003019	            0.613228	            0.078482
            1.261500	          -17.503742	          836.222295	         -116.241585	           -0.235402	            0.006050	           -0.365133	           -0.033279	            1.589858	           -0.221003	            3.552089	          766.477000	           97.856596	           -0.247496	            0.005703	           -0.729462	            0.003220	            0.694753	            0.088700
            1.262000	          -17.640860	          833.338214	         -116.299463	           -0.235427	            0.006050	           -0.365045	           -0.034998	            1.653286	           -0.230730	            3.844466	          763.347730	           97.798371	           -0.247429	            0.005704	           -0.729551	            0.003295	            0.654263	            0.083823
            1.262500	          -17.546709	          829.189203	         -115.629626	           -0.235337	            0.006050	           -0.365018	           -0.035541	            1.679508	           -0.234206	            3.715756	          760.033572	           97.505035	           -0.247456	            0.005703	           -0.729294	            0.003502	            0.716211	            0.091883
            1.263000	          -17.819677	          825.220885	         -115.095678	           -0.235328	            0.006050	           -0.365062	           -0.034750	            1.609241	           -0.224445	            3.674826	          758.376578	           97.358365	           -0.247371	            0.005704	           -0.729536	            0.003643	            0.751729	            0.096505
            1.263500	          -18.322247	          820.892838	         -114.746130	           -0.235245	            0.006050	           -0.365141	           -0.033586	            1.504763	           -0.210339	            4.014472	          755.065161	           96.736325	           -0.247356	            0.005704	           -0.729452	            0.003818	            0.718149	            0.092007
            1.264000	          -18.594859	          817.464622	         -114.026439	           -0.235108	            0.006050	           -0.365033	           -0.031082	            1.366432	           -0.190601	            4.209641	          752.857823	           96.259080	           -0.247351	            0.005704	           -0.729421	            0.004053	            0.724848	            0.092678
            1.264500	          -18.454915	          812.955224	         -113.404129	           -0.235064	            0.006050	           -0.365168	           -0.028223	            1.243262	           -0.173430	            4.127240	          749.726910	           96.247950	           -0.247322	            0.005704	           -0.729411	            0.004267	            0.775024	            0.099496
            1.265000	          -18.637563	          808.989405	         -113.420679	           -0.235061	            0.006050	           -0.365127	           -0.028187	            1.223493	           -0.171534	            4.463623	          747.335877	           95.769988	           -0.247269	            0.005704	           -0.729403	            0.004609	            0.771730	            0.098896
            1.265500	          -18.635539	          805.381732	         -112.885867	           -0.234889	            0.006050	           -0.365081	           -0.030412	            1.314346	           -0.184225	            4.334208	          744.206134	           95.383452	           -0.247372	            0.005704	           -0.729342	            0.004995	            0.857644	            0.109923
